<svg width="150" height="200" viewBox="0 0 150 200" fill="none" xmlns="http://www.w3.org/2000/svg">
<path d="M4.92945 3.69357C3.33621 4.84176 2.07628 6.22414 1.2285 7.75418C0.380725 9.28422 -0.036645 10.929 0.00252225 12.5855L0.00252225 187.414C0.00252225 190.834 1.64483 193.776 4.92945 196.238C6.4321 197.428 8.24295 198.375 10.2511 199.022C12.2592 199.669 14.4224 200.002 16.6081 200C21.17 200 25.0933 198.769 28.378 196.306L145.073 108.755C148.358 106.293 150 103.42 150 100C150 96.58 148.358 93.7072 145.073 91.2449L28.2867 3.69357C25.0933 1.29959 21.17 3.12573e-06 16.6081 3.12573e-06C12.0461 3.12573e-06 8.21406 1.29959 4.92945 3.76197V3.69357Z" fill="url(#paint0_radial_250_3)"/>
<defs>
<radialGradient id="paint0_radial_250_3" cx="0" cy="0" r="1" gradientUnits="userSpaceOnUse" gradientTransform="translate(0 100) scale(150 200)">
<stop stop-color="#82358C" stop-opacity="0.1157"/>
<stop offset="1" stop-color="#82236D" stop-opacity="0.9657"/>
</radialGradient>
</defs>
</svg>
