<svg width="150" height="200" viewBox="0 0 150 200" fill="none" xmlns="http://www.w3.org/2000/svg">
<path d="M145.071 196.306C146.664 195.158 147.924 193.776 148.771 192.246C149.619 190.716 150.037 189.071 149.997 187.415L149.997 12.5855C149.997 9.16553 148.355 6.22436 145.071 3.76198C143.568 2.57209 141.757 1.6247 139.749 0.977831C137.741 0.330959 135.578 -0.00177526 133.392 7.12313e-06C128.83 7.12313e-06 124.907 1.2312 121.622 3.69358L4.92692 91.2449C1.64231 93.7073 2.38217e-06 96.58 2.38217e-06 100C2.38217e-06 103.42 1.64231 106.293 4.92692 108.755L121.713 196.306C124.907 198.7 128.83 200 133.392 200C137.954 200 141.786 198.7 145.071 196.238V196.306Z" fill="url(#paint0_radial_250_3)"/>
<defs>
<radialGradient id="paint0_radial_250_3" cx="0" cy="0" r="1" gradientUnits="userSpaceOnUse" gradientTransform="translate(150 100) rotate(-180) scale(150 200)">
<stop stop-color="#82358C" stop-opacity="0.1157"/>
<stop offset="1" stop-color="#82236D" stop-opacity="0.9657"/>
</radialGradient>
</defs>
</svg>
