<svg width="293" height="166" viewBox="0 0 293 166" fill="none" xmlns="http://www.w3.org/2000/svg">
<path d="M287 6.39999C285.321 4.65378 283.3 3.27286 281.063 2.34368C278.826 1.4145 276.422 0.957059 274 0.999987H18.4C13.4 0.999987 9.10001 2.79999 5.50001 6.39999C3.7604 8.04692 2.37532 10.0317 1.42959 12.2326C0.483862 14.4336 -0.00259544 16.8044 1.0414e-05 19.2C1.0414e-05 24.2 1.80001 28.5 5.40001 32.1L133.4 160C137 163.6 141.2 165.4 146.2 165.4C151.2 165.4 155.4 163.6 159 160L287 32C290.5 28.5 292.4 24.2 292.4 19.2C292.4 14.2 290.5 9.99999 286.9 6.39999H287Z" fill="white"/>
</svg>
